<svg xmlns="http://www.w3.org/2000/svg" viewBox="0 0 1200 900" width="1200" height="900">
<defs>
<linearGradient id="g1" x1="0" y1="0" x2="0" y2="1"><stop offset="0" stop-color="#1b3b4"/><stop offset="1" stop-color="#2b5d5b"/></linearGradient>
<linearGradient id="g2" x1="0" y1="0" x2="0" y2="1"><stop offset="0" stop-color="#c9a15c" stop-opacity="0.30"/><stop offset="1" stop-color="#1b3b4" stop-opacity="0.85"/></linearGradient>
<radialGradient id="sun" cx="0.76" cy="0.2" r="0.4"><stop offset="0" stop-color="#c9a15c" stop-opacity="0.55"/><stop offset="1" stop-color="#c9a15c" stop-opacity="0"/></radialGradient>
</defs>
<rect width="1200" height="900" fill="url(#g1)"/>
<rect width="1200" height="900" fill="url(#sun)"/>
<rect x="120" y="640" width="90" height="260" fill="url(#g2)" opacity="0.35"/><rect x="130" y="658" width="70" height="12" fill="#c9a15c" opacity="0.16"/><rect x="130" y="704" width="70" height="12" fill="#c9a15c" opacity="0.16"/><rect x="130" y="750" width="70" height="12" fill="#c9a15c" opacity="0.16"/><rect x="130" y="796" width="70" height="12" fill="#c9a15c" opacity="0.16"/><rect x="130" y="842" width="70" height="12" fill="#c9a15c" opacity="0.16"/><rect x="260" y="503" width="90" height="397" fill="url(#g2)" opacity="0.42"/><rect x="270" y="521" width="70" height="12" fill="#c9a15c" opacity="0.16"/><rect x="270" y="567" width="70" height="12" fill="#c9a15c" opacity="0.16"/><rect x="270" y="613" width="70" height="12" fill="#c9a15c" opacity="0.16"/><rect x="270" y="659" width="70" height="12" fill="#c9a15c" opacity="0.16"/><rect x="270" y="705" width="70" height="12" fill="#c9a15c" opacity="0.16"/><rect x="270" y="751" width="70" height="12" fill="#c9a15c" opacity="0.16"/><rect x="270" y="797" width="70" height="12" fill="#c9a15c" opacity="0.16"/><rect x="270" y="843" width="70" height="12" fill="#c9a15c" opacity="0.16"/><rect x="400" y="366" width="90" height="534" fill="url(#g2)" opacity="0.49"/><rect x="410" y="384" width="70" height="12" fill="#c9a15c" opacity="0.16"/><rect x="410" y="430" width="70" height="12" fill="#c9a15c" opacity="0.16"/><rect x="410" y="476" width="70" height="12" fill="#c9a15c" opacity="0.16"/><rect x="410" y="522" width="70" height="12" fill="#c9a15c" opacity="0.16"/><rect x="410" y="568" width="70" height="12" fill="#c9a15c" opacity="0.16"/><rect x="410" y="614" width="70" height="12" fill="#c9a15c" opacity="0.16"/><rect x="410" y="660" width="70" height="12" fill="#c9a15c" opacity="0.16"/><rect x="410" y="706" width="70" height="12" fill="#c9a15c" opacity="0.16"/><rect x="410" y="752" width="70" height="12" fill="#c9a15c" opacity="0.16"/><rect x="410" y="798" width="70" height="12" fill="#c9a15c" opacity="0.16"/><rect x="410" y="844" width="70" height="12" fill="#c9a15c" opacity="0.16"/><rect x="540" y="229" width="90" height="671" fill="url(#g2)" opacity="0.56"/><rect x="550" y="247" width="70" height="12" fill="#c9a15c" opacity="0.16"/><rect x="550" y="293" width="70" height="12" fill="#c9a15c" opacity="0.16"/><rect x="550" y="339" width="70" height="12" fill="#c9a15c" opacity="0.16"/><rect x="550" y="385" width="70" height="12" fill="#c9a15c" opacity="0.16"/><rect x="550" y="431" width="70" height="12" fill="#c9a15c" opacity="0.16"/><rect x="550" y="477" width="70" height="12" fill="#c9a15c" opacity="0.16"/><rect x="550" y="523" width="70" height="12" fill="#c9a15c" opacity="0.16"/><rect x="550" y="569" width="70" height="12" fill="#c9a15c" opacity="0.16"/><rect x="550" y="615" width="70" height="12" fill="#c9a15c" opacity="0.16"/><rect x="550" y="661" width="70" height="12" fill="#c9a15c" opacity="0.16"/><rect x="550" y="707" width="70" height="12" fill="#c9a15c" opacity="0.16"/><rect x="550" y="753" width="70" height="12" fill="#c9a15c" opacity="0.16"/><rect x="550" y="799" width="70" height="12" fill="#c9a15c" opacity="0.16"/><rect x="550" y="845" width="70" height="12" fill="#c9a15c" opacity="0.16"/><rect x="680" y="512" width="90" height="388" fill="url(#g2)" opacity="0.63"/><rect x="690" y="530" width="70" height="12" fill="#c9a15c" opacity="0.16"/><rect x="690" y="576" width="70" height="12" fill="#c9a15c" opacity="0.16"/><rect x="690" y="622" width="70" height="12" fill="#c9a15c" opacity="0.16"/><rect x="690" y="668" width="70" height="12" fill="#c9a15c" opacity="0.16"/><rect x="690" y="714" width="70" height="12" fill="#c9a15c" opacity="0.16"/><rect x="690" y="760" width="70" height="12" fill="#c9a15c" opacity="0.16"/><rect x="690" y="806" width="70" height="12" fill="#c9a15c" opacity="0.16"/><rect x="690" y="852" width="70" height="12" fill="#c9a15c" opacity="0.16"/><rect x="820" y="375" width="90" height="525" fill="url(#g2)" opacity="0.7"/><rect x="830" y="393" width="70" height="12" fill="#c9a15c" opacity="0.16"/><rect x="830" y="439" width="70" height="12" fill="#c9a15c" opacity="0.16"/><rect x="830" y="485" width="70" height="12" fill="#c9a15c" opacity="0.16"/><rect x="830" y="531" width="70" height="12" fill="#c9a15c" opacity="0.16"/><rect x="830" y="577" width="70" height="12" fill="#c9a15c" opacity="0.16"/><rect x="830" y="623" width="70" height="12" fill="#c9a15c" opacity="0.16"/><rect x="830" y="669" width="70" height="12" fill="#c9a15c" opacity="0.16"/><rect x="830" y="715" width="70" height="12" fill="#c9a15c" opacity="0.16"/><rect x="830" y="761" width="70" height="12" fill="#c9a15c" opacity="0.16"/><rect x="830" y="807" width="70" height="12" fill="#c9a15c" opacity="0.16"/><rect x="830" y="853" width="70" height="12" fill="#c9a15c" opacity="0.16"/><rect x="960" y="238" width="90" height="662" fill="url(#g2)" opacity="0.77"/><rect x="970" y="256" width="70" height="12" fill="#c9a15c" opacity="0.16"/><rect x="970" y="302" width="70" height="12" fill="#c9a15c" opacity="0.16"/><rect x="970" y="348" width="70" height="12" fill="#c9a15c" opacity="0.16"/><rect x="970" y="394" width="70" height="12" fill="#c9a15c" opacity="0.16"/><rect x="970" y="440" width="70" height="12" fill="#c9a15c" opacity="0.16"/><rect x="970" y="486" width="70" height="12" fill="#c9a15c" opacity="0.16"/><rect x="970" y="532" width="70" height="12" fill="#c9a15c" opacity="0.16"/><rect x="970" y="578" width="70" height="12" fill="#c9a15c" opacity="0.16"/><rect x="970" y="624" width="70" height="12" fill="#c9a15c" opacity="0.16"/><rect x="970" y="670" width="70" height="12" fill="#c9a15c" opacity="0.16"/><rect x="970" y="716" width="70" height="12" fill="#c9a15c" opacity="0.16"/><rect x="970" y="762" width="70" height="12" fill="#c9a15c" opacity="0.16"/><rect x="970" y="808" width="70" height="12" fill="#c9a15c" opacity="0.16"/><rect x="970" y="854" width="70" height="12" fill="#c9a15c" opacity="0.16"/>
<rect y="810" width="1200" height="90" fill="#1b3b4" opacity="0.55"/>
</svg>